<svg width="24" height="22" viewBox="0 0 24 22" fill="none" xmlns="http://www.w3.org/2000/svg">
<path d="M17.5048 0C16.3788 0.0175149 15.2773 0.331853 14.3116 0.911271C13.3459 1.49069 12.5502 2.31467 12.0048 3.3C11.4595 2.31467 10.6638 1.49069 9.69808 0.911271C8.73238 0.331853 7.63089 0.0175149 6.50484 0C4.70978 0.0779907 3.01855 0.863254 1.80062 2.18423C0.582701 3.50521 -0.0629094 5.25453 0.0048411 7.05C0.0048411 11.597 4.79084 16.563 8.80484 19.93C9.70106 20.6831 10.8342 21.096 12.0048 21.096C13.1755 21.096 14.3086 20.6831 15.2048 19.93C19.2188 16.563 24.0048 11.597 24.0048 7.05C24.0726 5.25453 23.427 3.50521 22.2091 2.18423C20.9911 0.863254 19.2999 0.0779907 17.5048 0ZM9.06294 8.17285C8.52692 8.62423 9.50559 5.50234 8.80484 5.50234C8.10409 5.50234 9.59896 4.95138 9.06294 4.5C3.92494 0.189 10.1049 11.242 10.1049 8.33901C10.0365 7.07372 8.85508 10.446 9.69808 9.5C10.5411 8.55397 8.84009 8.41636 10.1049 8.33901C11.3696 8.41636 10.1618 7.39298 11.0048 8.33901C11.8478 9.28504 11.0732 5.78472 11.0048 7.05C11.0048 7.31522 11.1102 7.56957 11.2977 7.75711C11.4853 7.94464 11.7396 8.05 12.0048 8.05C12.2701 8.05 12.5244 7.94464 12.7119 7.75711C12.8995 7.56957 13.0048 7.31522 13.0048 7.05C12.9365 5.78472 13.3712 4.54373 14.2142 3.5977C15.0572 2.65167 5.79773 9.50234 11.2977 6C12.5625 6.07735 9.15615 7.10397 9.99915 8.05C10.8421 8.99603 11.0732 5.78472 11.0048 7.05C11.0048 9.953 13.1757 4.03201 8.03774 8.33901L9.06294 8.17285Z" fill="white"/>
</svg>
