<svg width="800" height="800" viewBox="0 0 800 800" fill="none" xmlns="http://www.w3.org/2000/svg">
<g clip-path="url(#clip0_5_73)">
<path d="M148.767 389.7C146.067 375.167 127.067 367.167 108.2 377.433L113.067 394.033L120.733 418.6L124.2 429.767C138.3 420.7 152.533 409.8 148.767 389.667V389.7ZM130.033 412.033C127.886 404.954 125.697 397.887 123.467 390.833L121.5 384.067C125.191 383.27 129.039 383.655 132.5 385.167C134.267 386.033 137.367 387.967 138.033 391.7C139.6 400.033 136.8 406 130.033 411.967V412.033ZM433.633 366.633C431.028 364.233 427.956 362.395 424.61 361.233C421.263 360.072 417.713 359.612 414.181 359.883C410.649 360.153 407.21 361.148 404.079 362.806C400.949 364.463 398.193 366.748 395.983 369.517C393.774 372.286 392.159 375.48 391.238 378.901C390.317 382.322 390.111 385.895 390.631 389.399C391.152 392.903 392.389 396.263 394.264 399.268C396.14 402.273 398.614 404.86 401.533 406.867L435.467 368.433C434.878 367.811 434.266 367.211 433.633 366.633ZM401.6 393.7C399.958 390.706 399.276 387.279 399.646 383.885C400.015 380.49 401.419 377.29 403.666 374.719C405.914 372.148 408.896 370.33 412.211 369.509C415.526 368.689 419.013 368.907 422.2 370.133L401.6 393.7ZM653.3 401.2C653.609 402.34 653.755 403.519 653.733 404.7C653.4 411.867 646.633 417.433 638.6 417.033C630.567 416.767 624.267 410.667 624.6 403.533C624.833 396.767 630.833 391.467 638.233 391.133C636.788 390.808 635.314 390.618 633.833 390.567C620.333 390 609.333 399.567 608.9 411.433C608.333 424.1 618.533 434.5 631.767 435.067C645.3 435.567 656.267 426 656.767 413.367C656.91 409.053 655.677 404.802 653.3 401.2ZM244.833 415.733C244.833 422.933 238.267 428.733 230.233 428.733C222.167 428.733 215.633 422.967 215.633 415.733C215.633 409 221.4 403.467 228.767 402.8C227.315 402.535 225.842 402.401 224.367 402.4C210.9 402.4 200.267 412.4 200.267 424.267C200.267 437 210.933 446.933 224.133 446.933C237.633 446.933 248.233 437 248.233 424.267C248.217 419.968 246.827 415.787 244.267 412.333C244.6 413.333 244.833 414.5 244.833 415.733ZM737.1 342.9L731.1 367.533L725.567 340.2L651.633 323.967L652.167 365.067L663.3 367.567L662.5 375L662.167 374.767C648.367 367.5 631.267 366.767 615.167 372.833C609.733 374.833 604.7 377.6 600.167 380.9L589 310.5H539.833L538.5 318.633H486.733L480.833 354.8L476.5 349.5C470.339 341.954 462.589 335.86 453.802 331.654C445.015 327.448 435.408 325.233 425.667 325.167L469.6 301.533L439 255.867L383.567 319.633L393.133 331.3C384.831 334.649 377.215 339.496 370.667 345.6L323.2 303.467L306.633 335.233L307.267 304.7L233.067 328.433L234.967 368.3L247.6 365.033L249.467 385.2C235.033 378.767 217.667 378.867 201.6 385.667C196.903 387.721 192.443 390.281 188.3 393.3C191.24 381.573 190.34 369.212 185.733 358.033C180.177 345.326 170.612 334.789 158.5 328.033C149.839 322.374 139.956 318.855 129.667 317.767C104 313.267 73.1333 317.867 42.8 330.833C32.0629 335.339 21.7166 340.724 11.8667 346.933L0 354.467L7.16667 366.567L29.4 404.133C29.4 404.133 36.2 415.667 36.2333 415.633L48.2667 409.733L49.9333 408.967L105.2 532.3L110.533 544.133L122.867 540.2L152.733 530.6L165.867 526.433L162.4 513.1L146.533 452.133C151.1 448.767 155.333 445.167 159.3 441.433C158.4 448.733 158.867 456.1 160.867 463.167C165 477.933 174.733 489.6 188.133 496.033C202.633 503.033 220.3 503.033 236.667 496.1C244.9 492.633 252.233 487.533 258.367 481.467L260.633 505.733L312.967 498.033L312.9 451.133L422.3 505.133V452.8C438.134 451.225 453.446 446.269 467.2 438.267L462.6 466.367L521.6 475.667L524.833 454.433L540.2 482.9L549.633 464.733L553.1 494.567L619.933 506.3L616.4 483.833C628.332 485.11 640.375 482.813 651 477.233L648.333 501.167L692.867 507.467L693.2 525.7L739.533 540.3L800 358.167L737.1 342.9ZM475.8 369.9L478.867 366.667L475.133 389.667L465.5 380.933L475.8 369.9ZM436.567 276.133L452.8 298.167L406.467 321.133L403.233 316.267L436.567 276.133ZM129.833 445.833L148.333 516.767L118.4 526.333L57.0333 389.267C53.7 391.033 47.5667 393.933 41.8667 396.7L19.6667 359.167C28.5333 353.533 38.2 348.533 48.5 344.167C77.4333 331.867 105.067 328.167 127.167 332.1C134.933 333 143.2 335.267 150.5 340.1C160.433 345.7 168 353.633 172.4 363.8C183.067 388.467 165.2 424.033 129.833 445.833ZM267.367 433.233C267.033 443.833 263.133 454.367 256.667 463.333C250.334 472.201 241.702 479.174 231.7 483.5C205.733 494.5 179.8 483.5 172.9 458.833C166.133 435.033 181.767 406.667 206.9 395.833C223 389.1 239.1 390.667 250.633 398.5C257.733 403.367 263.2 410.633 265.733 419.733C266.972 424.133 267.523 428.698 267.367 433.267V433.233ZM408.567 483.367L300.1 429.067L300.3 485.967L272.2 489.8L270.233 466.367C278.9 451.5 282.067 433.967 277.567 417.9C275.186 409.306 270.588 401.49 264.233 395.233L260.2 347.467L247.633 350.733L247.067 338.667L292.133 325.2L294.9 371.733L328.133 325.067L360.6 355.967L315.2 403.833L357.867 420.733C362.6 429.733 369.867 437.4 379 443.067C387.8 448.5 397.933 451.733 408.633 452.767V483.367H408.567ZM352.233 404.7L337.1 398.9L351.2 385.233C350.567 391.5 350.867 398.067 352.2 404.7H352.233ZM470.3 418.933C459.9 427.567 447.967 433.167 432.333 436.933C429.021 437.732 425.657 438.3 422.267 438.633C397.367 441.067 376.467 429.633 368.533 411.1C367.553 408.854 366.783 406.522 366.233 404.133C362.567 388.533 365.7 374.567 373.4 363.633C375.654 360.431 378.284 357.51 381.233 354.933C388.983 348.183 398.281 343.454 408.3 341.167C432.033 335.467 452.933 342.7 465.733 358.4L420.567 406.533C424.435 406.854 428.329 406.482 432.067 405.433C442.833 402.8 448.867 397.1 454.167 390.9L472.233 407.1L477.7 412.1C475.349 414.5 472.879 416.781 470.3 418.933ZM566.2 483.167L556.4 418.033L542.467 453.967L521.633 409.033H521.4L513.2 461.033L478.5 455.033L483.367 426.033C484.68 424.792 485.969 423.525 487.233 422.233L498.5 410.633L487.533 400.833L499.2 331.733H534.2L542.933 379.6L552.733 324.167H577.8L588.2 391.7C575 406.733 568.533 427.033 573 445.533C574.724 453.159 578.238 460.265 583.251 466.264C588.265 472.263 594.635 476.983 601.833 480.033L603.167 488.8L566.2 483.167ZM652.7 461.933C648.819 464.693 644.595 466.935 640.133 468.6C631.96 471.874 623.025 472.764 614.367 471.167C608.995 470.142 603.904 467.983 599.433 464.833C592.178 459.523 587.088 451.769 585.1 443C582.433 431.8 584.867 419.8 590.9 409.267C593.933 404.133 597.8 399.333 602.367 395.167C607.433 390.6 613.367 386.833 619.933 384.333C635.233 378.6 650.333 380.6 660.933 388.2C668.026 393.294 673.025 400.793 675 409.3C678.267 422.833 674.4 437.233 665.867 448.867C662.203 453.897 657.758 458.308 652.7 461.933ZM730.8 523.3L705.133 515.667L702.933 421.067L690 494.067L662 489.567L664.067 468.567C682.3 453.1 692 428.733 686.7 406.7C684.487 397.164 679.445 388.52 672.233 381.9L674.6 357.133L664.033 354.3L664.7 341.1L712.967 350.767L729.2 427.7L745.833 358.733L782.5 366.867L730.8 523.3Z" fill="white"/>
</g>
<defs>
<clipPath id="clip0_5_73">
<rect width="800" height="800" fill="white"/>
</clipPath>
</defs>
</svg>
